<svg width="18" height="20" viewBox="0 0 18 20" fill="none" xmlns="http://www.w3.org/2000/svg">
<g id="Calendar">
<path id="Calendar_2" fill-rule="evenodd" clip-rule="evenodd" d="M12.9364 0.735076V1.76997C15.7162 2.06186 17.1382 3.72477 17.1382 6.71446V14.9848C17.1382 18.3106 15.3868 20 11.9402 20H5.70581C2.25923 20 0.507812 18.3106 0.507812 14.9848V6.71446C0.507812 4.72428 1.13446 3.30019 2.41991 2.46874C2.62254 2.31904 2.88469 2.30859 3.09662 2.44176C3.30856 2.57494 3.43371 2.82876 3.41969 3.09698C3.40567 3.3652 3.2549 3.60155 3.03049 3.70708C2.17889 4.25548 1.77719 5.21077 1.77719 6.71446V6.97981H13.4988C13.8493 6.97981 14.1335 7.29266 14.1335 7.67859C14.1335 8.06451 13.8493 8.37736 13.4988 8.37736H1.77719V14.9848C1.77719 17.5233 2.91801 18.5759 5.70581 18.5936H11.9402C14.6878 18.5936 15.8608 17.5145 15.8608 14.9759V6.70561C15.8608 4.4943 14.969 3.42403 12.9364 3.16752V3.83975C12.8895 4.19806 12.6046 4.45964 12.276 4.44599C11.9475 4.43234 11.6812 4.14786 11.659 3.78668V0.673159C11.6652 0.486183 11.7393 0.309767 11.8647 0.183413C11.99 0.0570589 12.1561 -0.00867809 12.3258 0.00092119C12.6758 0.0246108 12.9457 0.349232 12.9364 0.735076ZM5.78221 4.29279C5.66144 4.42409 5.49793 4.49667 5.32821 4.4943C4.98083 4.48465 4.70509 4.16923 4.7096 3.78668V0.735076C4.74612 0.377086 5.0211 0.106447 5.3483 0.106447C5.6755 0.106447 5.95048 0.377086 5.987 0.735076V1.69921H9.61837C9.9689 1.69921 10.2531 2.01206 10.2531 2.39798C10.2531 2.7839 9.9689 3.09675 9.61837 3.09675H5.97093V3.79553C5.97095 3.9824 5.90298 4.16149 5.78221 4.29279ZM12.6954 10.6152C12.2517 10.6152 11.892 11.0112 11.892 11.4997C11.892 11.9882 12.2517 12.3843 12.6954 12.3843C13.1391 12.3843 13.4988 11.9882 13.4988 11.4997C13.4988 11.2636 13.4131 11.0373 13.2607 10.8711C13.1082 10.705 12.9018 10.6128 12.6874 10.6152H12.6954ZM8.03567 11.4997C8.03567 11.0112 8.39537 10.6152 8.83907 10.6152C9.28278 10.6152 9.64247 11.0112 9.64247 11.4997C9.64247 11.9882 9.28278 12.3843 8.83907 12.3843C8.39537 12.3843 8.03567 11.9882 8.03567 11.4997ZM4.99079 10.6152C4.54708 10.6152 4.18739 11.0112 4.18739 11.4997C4.18739 11.9882 4.54708 12.3843 4.99079 12.3843C5.43449 12.3843 5.79419 11.9882 5.79419 11.4997C5.7942 11.2636 5.70845 11.0373 5.55604 10.8711C5.40363 10.705 5.19722 10.6128 4.98275 10.6152H4.99079ZM11.892 15.082C11.892 14.5935 12.2517 14.1975 12.6954 14.1975H12.6874C12.9018 14.1952 13.1082 14.2873 13.2607 14.4534C13.4131 14.6196 13.4988 14.8459 13.4988 15.082C13.4988 15.5706 13.1391 15.9666 12.6954 15.9666C12.2517 15.9666 11.892 15.5706 11.892 15.082ZM8.83907 14.1975C8.39537 14.1975 8.03567 14.5935 8.03567 15.082C8.03567 15.5706 8.39537 15.9666 8.83907 15.9666C9.28278 15.9666 9.64247 15.5706 9.64247 15.082C9.64247 14.5935 9.28278 14.1975 8.83907 14.1975ZM4.18739 15.082C4.18739 14.5935 4.54708 14.1975 4.99079 14.1975H4.98275C5.19722 14.1952 5.40363 14.2873 5.55604 14.4534C5.70845 14.6196 5.7942 14.8459 5.79419 15.082C5.79419 15.5706 5.43449 15.9666 4.99079 15.9666C4.54708 15.9666 4.18739 15.5706 4.18739 15.082Z" fill="#616164"/>
</g>
</svg>
