<svg width="18" height="16" viewBox="0 0 18 16" fill="none" xmlns="http://www.w3.org/2000/svg">
<path d="M16.7689 0.802734H1.42494C1.05594 0.802734 0.757812 1.07341 0.757812 1.40844V15.3397C0.757812 15.6747 1.05594 15.9454 1.42494 15.9454H16.7689C17.1379 15.9454 17.4361 15.6747 17.4361 15.3397V1.40844C17.4361 1.07341 17.1379 0.802734 16.7689 0.802734ZM14.8426 5.22249H13.5104C12.4659 5.22249 12.2637 5.67299 12.2637 6.33548V7.79485H14.7571L14.4319 10.0795H12.2637V15.9454H9.66399V10.0814H7.48957V7.79485H9.66399V6.11023C9.66399 4.15494 10.9795 3.08927 12.9017 3.08927C13.8231 3.08927 14.6133 3.15174 14.8447 3.18013V5.22249H14.8426Z" fill="#AAAAAA"/>
</svg>
