<svg width="18" height="16" viewBox="0 0 18 16" fill="none" xmlns="http://www.w3.org/2000/svg">
<path d="M9.14953 5.84921C7.61827 5.84921 6.36864 6.98378 6.36864 8.37406C6.36864 9.76433 7.61827 10.8989 9.14953 10.8989C10.6808 10.8989 11.9304 9.76433 11.9304 8.37406C11.9304 6.98378 10.6808 5.84921 9.14953 5.84921ZM17.4901 8.37406C17.4901 7.32851 17.5005 6.29243 17.4359 5.24878C17.3712 4.03654 17.0666 2.96069 16.0903 2.07425C15.1119 1.18591 13.929 0.911262 12.5938 0.852545C11.4423 0.793827 10.3011 0.803298 9.15162 0.803298C8.00004 0.803298 6.8589 0.793827 5.70941 0.852545C4.37425 0.911262 3.18929 1.1878 2.21295 2.07425C1.23453 2.96258 0.932033 4.03654 0.867361 5.24878C0.80269 6.29432 0.813121 7.3304 0.813121 8.37406C0.813121 9.41771 0.80269 10.4557 0.867361 11.4993C0.932033 12.7116 1.23662 13.7874 2.21295 14.6739C3.19138 15.5622 4.37425 15.8369 5.70941 15.8956C6.86098 15.9543 8.00213 15.9448 9.15162 15.9448C10.3032 15.9448 11.4443 15.9543 12.5938 15.8956C13.929 15.8369 15.1139 15.5603 16.0903 14.6739C17.0687 13.7855 17.3712 12.7116 17.4359 11.4993C17.5026 10.4557 17.4901 9.41961 17.4901 8.37406ZM9.14953 12.2589C6.78171 12.2589 4.87076 10.5239 4.87076 8.37406C4.87076 6.22424 6.78171 4.48924 9.14953 4.48924C11.5174 4.48924 13.4283 6.22424 13.4283 8.37406C13.4283 10.5239 11.5174 12.2589 9.14953 12.2589ZM13.6035 5.23741C13.0507 5.23741 12.6043 4.83207 12.6043 4.33013C12.6043 3.82819 13.0507 3.42285 13.6035 3.42285C14.1564 3.42285 14.6028 3.82819 14.6028 4.33013C14.603 4.44932 14.5773 4.56737 14.5271 4.67751C14.4769 4.78765 14.4033 4.88773 14.3105 4.97201C14.2177 5.05629 14.1075 5.12311 13.9862 5.16865C13.8648 5.21419 13.7348 5.23756 13.6035 5.23741Z" fill="#AAAAAA"/>
</svg>
