<svg width="21" height="21" viewBox="0 0 21 21" fill="none" xmlns="http://www.w3.org/2000/svg">
<g id="&#229;&#149;&#134;&#229;&#174;&#182;&#229;&#156;&#176;&#229;&#157;&#128;&#229;&#186;&#147;">
<path id="Combined Shape" fill-rule="evenodd" clip-rule="evenodd" d="M5.30478 6.00008C5.30478 10.4445 10.2323 14.4445 10.2323 14.4445C10.2323 14.4445 15.1598 10.4445 15.1598 6.00008C15.1598 3.05457 12.9537 0.666748 10.2323 0.666748C7.51091 0.666748 5.30478 3.05457 5.30478 6.00008ZM10.2323 16.0001C10.233 16.0001 10.2218 15.9916 10.1999 15.975C9.95226 15.7866 8.32713 14.55 6.8129 12.6667H4.70266C4.28946 12.6667 3.90379 12.8909 3.67562 13.2638L0.411884 18.5972C0.278278 18.8155 0.207031 19.0715 0.207031 19.3334C0.207031 20.0698 0.758564 20.6667 1.43891 20.6667H19.0118C19.2559 20.6667 19.4944 20.5882 19.6972 20.4413C20.2625 20.0316 20.414 19.2034 20.0354 18.5915L16.7359 13.2582C16.5073 12.8886 16.1233 12.6667 15.7124 12.6667H13.6517C12.1375 14.55 10.5124 15.7866 10.2647 15.975C10.25 15.9861 10.2401 15.9936 10.2355 15.9974C10.2332 15.9992 10.2321 16.0001 10.2323 16.0001ZM5.30478 19.3335V18.0001H15.1598V19.3335H5.30478ZM10.2323 8.00008C11.2528 8.00008 12.0801 7.10465 12.0801 6.00008C12.0801 4.89551 11.2528 4.00008 10.2323 4.00008C9.21178 4.00008 8.38448 4.89551 8.38448 6.00008C8.38448 7.10465 9.21178 8.00008 10.2323 8.00008Z" fill="#616164"/>
</g>
</svg>
