<svg width="139" height="56" viewBox="0 0 139 56" fill="none" xmlns="http://www.w3.org/2000/svg">
<path d="M3.785 44.785C2.86833 44.785 2.00667 44.5283 1.2 44.015C0.393333 43.5017 -0.00999994 42.8417 -0.00999994 42.035C-0.00999994 41.6317 0.0816667 41.1367 0.265 40.55C0.448333 40 0.613333 39.4867 0.76 39.01C1.93333 35.4167 3.03333 32.0617 4.06 28.945C5.08667 25.8283 6.11333 22.8033 7.14 19.87C8.16667 16.9367 9.24833 14.0033 10.385 11.07C11.5583 8.13667 12.86 5.075 14.29 1.885C12.8967 2.14166 11.65 2.52666 10.55 3.04C9.48667 3.51666 8.625 3.95667 7.965 4.36C7.305 4.72667 6.865 4.91 6.645 4.91C6.49833 4.91 6.27833 4.83667 5.985 4.69C5.72833 4.50667 5.49 4.305 5.27 4.085C5.05 3.82833 4.94 3.60833 4.94 3.425C5.89333 3.02166 7.01167 2.58166 8.295 2.105C9.615 1.62833 11.0267 1.225 12.53 0.894999C14.0333 0.564998 15.555 0.399998 17.095 0.399998C18.7083 0.399998 20.34 0.619999 21.99 1.06C23.6767 1.5 25.2167 2.17833 26.61 3.095C28.0033 3.975 29.1217 5.075 29.965 6.395C30.8083 7.715 31.23 9.255 31.23 11.015C31.23 12.9217 30.8083 14.5717 29.965 15.965C29.1217 17.3217 28.0033 18.4767 26.61 19.43C25.2167 20.3467 23.7133 21.0983 22.1 21.685C20.4867 22.235 18.8733 22.675 17.26 23.005C15.6833 23.2983 14.2717 23.5 13.025 23.61C11.7783 23.6833 10.8617 23.72 10.275 23.72H9.725C8.625 27.4967 7.56167 31.2183 6.535 34.885C5.545 38.5517 4.62833 41.8517 3.785 44.785ZM9.945 22.84C11.9617 22.73 13.9967 22.4 16.05 21.85C18.14 21.3 20.0467 20.5117 21.77 19.485C23.4933 18.4217 24.8867 17.12 25.95 15.58C27.0133 14.0033 27.545 12.17 27.545 10.08C27.545 8.1 27.0683 6.48666 26.115 5.24C25.1983 3.99333 23.97 3.07667 22.43 2.49C20.9267 1.86666 19.3133 1.555 17.59 1.555C16.2333 4.23166 14.9133 7.44 13.63 11.18C12.3467 14.92 11.1183 18.8067 9.945 22.84ZM26.4545 42.585C25.3178 42.585 24.3645 42.2 23.5945 41.43C22.7878 40.6967 22.3845 39.56 22.3845 38.02C22.3845 36.7 22.6778 35.2883 23.2645 33.785C23.8511 32.245 24.6578 30.7417 25.6845 29.275C26.7111 27.7717 27.8661 26.415 29.1495 25.205C30.4695 23.9583 31.8445 22.9683 33.2745 22.235C34.7411 21.5017 36.1895 21.135 37.6195 21.135C39.0495 21.135 40.2411 21.52 41.1945 22.29C42.1478 23.0233 42.6245 24.0133 42.6245 25.26C42.6245 26.1767 42.3678 26.8 41.8545 27.13C41.3778 27.46 40.7361 27.625 39.9295 27.625C40.0028 27.3317 40.0578 27.02 40.0945 26.69C40.1678 26.3233 40.2045 25.9933 40.2045 25.7C40.2045 24.8567 40.0028 24.1417 39.5995 23.555C39.1961 22.9317 38.4995 22.62 37.5095 22.62C36.4828 22.62 35.4378 22.9867 34.3745 23.72C33.3111 24.4167 32.2845 25.37 31.2945 26.58C30.3045 27.7533 29.4245 29.0367 28.6545 30.43C27.8845 31.8233 27.2795 33.1983 26.8395 34.555C26.3995 35.9117 26.1795 37.1217 26.1795 38.185C26.1795 39.615 26.6745 40.33 27.6645 40.33C28.5078 40.33 29.4245 39.945 30.4145 39.175C31.4045 38.3683 32.4128 37.36 33.4395 36.15C34.5028 34.9033 35.5111 33.62 36.4645 32.3C37.4178 30.98 38.2611 29.77 38.9945 28.67C39.1411 28.45 39.2328 28.34 39.2695 28.34C39.4895 28.3767 39.7645 28.45 40.0945 28.56C40.4611 28.67 40.7728 28.8167 41.0295 29C41.2861 29.1833 41.4145 29.4217 41.4145 29.715C41.4145 30.045 41.2495 30.5033 40.9195 31.09C40.5895 31.64 40.2228 32.2817 39.8195 33.015C39.4161 33.7483 39.0495 34.5 38.7195 35.27C38.3895 36.0033 38.2245 36.7 38.2245 37.36C38.2245 37.91 38.3711 38.46 38.6645 39.01C38.9578 39.5233 39.4345 39.78 40.0945 39.78C41.0845 39.78 42.3861 39.065 43.9995 37.635C45.6128 36.1683 47.2445 33.9867 48.8945 31.09L49.4445 31.64C48.6745 33.62 47.6845 35.3617 46.4745 36.865C45.2645 38.3683 43.9628 39.5417 42.5695 40.385C41.2128 41.2283 39.8745 41.65 38.5545 41.65C37.1978 41.65 36.1895 41.2467 35.5295 40.44C34.9061 39.6333 34.5945 38.7533 34.5945 37.8C34.5945 37.58 34.6128 37.3417 34.6495 37.085C34.6861 36.7917 34.7228 36.4983 34.7595 36.205C33.1828 38.3317 31.7345 39.9267 30.4145 40.99C29.1311 42.0533 27.8111 42.585 26.4545 42.585ZM44.3045 55.4C44.0112 55.4 43.7362 55.235 43.4795 54.905C43.1862 54.6117 42.9662 54.2817 42.8195 53.915C42.6729 53.585 42.5995 53.3833 42.5995 53.31C43.1129 51.5133 43.6262 49.9 44.1395 48.47C44.6162 47.0767 45.1112 45.6283 45.6245 44.125C46.1012 42.6583 46.5779 40.935 47.0545 38.955C47.5312 36.9383 48.0262 34.445 48.5395 31.475C49.0529 28.505 49.5662 24.82 50.0795 20.42C50.1162 20.09 50.1895 19.8517 50.2995 19.705C50.4095 19.5583 50.6845 19.485 51.1245 19.485C52.0779 19.485 52.7562 19.76 53.1595 20.31C53.5629 20.8233 53.7645 21.3917 53.7645 22.015C53.7645 22.5283 53.6545 23.445 53.4345 24.765C53.2145 26.085 52.9029 27.6433 52.4995 29.44C53.1229 28.23 53.8929 27.0017 54.8095 25.755C55.7629 24.5083 56.8445 23.4633 58.0545 22.62C59.2645 21.7767 60.5845 21.355 62.0145 21.355C63.6279 21.355 64.9479 21.9417 65.9745 23.115C67.0379 24.2517 67.5695 25.755 67.5695 27.625C67.5695 29.055 67.2395 30.5767 66.5795 32.19C65.9562 33.7667 65.0579 35.27 63.8845 36.7C62.7479 38.0933 61.3912 39.23 59.8145 40.11C58.2379 40.99 56.4962 41.43 54.5895 41.43C53.6362 41.43 52.8662 41.32 52.2795 41.1C51.6929 40.88 51.3995 40.66 51.3995 40.44C51.3995 40.2933 51.5279 40.2017 51.7845 40.165C52.0779 40.165 52.4079 40.165 52.7745 40.165C54.2412 40.165 55.6345 39.8167 56.9545 39.12C58.3112 38.3867 59.5212 37.4333 60.5845 36.26C61.6479 35.0867 62.4729 33.785 63.0595 32.355C63.6829 30.925 63.9945 29.5133 63.9945 28.12C63.9945 26.9467 63.7379 25.9567 63.2245 25.15C62.7479 24.3067 61.9595 23.885 60.8595 23.885C59.9062 23.885 58.9529 24.1967 57.9995 24.82C57.0829 25.4067 56.2029 26.1767 55.3595 27.13C54.5529 28.0467 53.8195 29.0183 53.1595 30.045C52.5362 31.035 52.0595 31.9333 51.7295 32.74C51.0695 35.49 50.4095 38.13 49.7495 40.66C49.0895 43.2267 48.4479 45.5367 47.8245 47.59C47.2379 49.68 46.7062 51.385 46.2295 52.705C45.7162 54.025 45.2945 54.8317 44.9645 55.125C44.7812 55.3083 44.5612 55.4 44.3045 55.4ZM71.8939 42.585C70.7572 42.585 69.8039 42.2 69.0339 41.43C68.2272 40.6967 67.8239 39.56 67.8239 38.02C67.8239 36.7 68.1172 35.2883 68.7039 33.785C69.2906 32.245 70.0972 30.7417 71.1239 29.275C72.1506 27.7717 73.3056 26.415 74.5889 25.205C75.9089 23.9583 77.2839 22.9683 78.7139 22.235C80.1806 21.5017 81.6289 21.135 83.0589 21.135C84.4889 21.135 85.6806 21.52 86.6339 22.29C87.5872 23.0233 88.0639 24.0133 88.0639 25.26C88.0639 26.1767 87.8072 26.8 87.2939 27.13C86.8172 27.46 86.1756 27.625 85.3689 27.625C85.4422 27.3317 85.4972 27.02 85.5339 26.69C85.6072 26.3233 85.6439 25.9933 85.6439 25.7C85.6439 24.8567 85.4422 24.1417 85.0389 23.555C84.6356 22.9317 83.9389 22.62 82.9489 22.62C81.9222 22.62 80.8772 22.9867 79.8139 23.72C78.7506 24.4167 77.7239 25.37 76.7339 26.58C75.7439 27.7533 74.8639 29.0367 74.0939 30.43C73.3239 31.8233 72.7189 33.1983 72.2789 34.555C71.8389 35.9117 71.6189 37.1217 71.6189 38.185C71.6189 39.615 72.1139 40.33 73.1039 40.33C73.9472 40.33 74.8639 39.945 75.8539 39.175C76.8439 38.3683 77.8522 37.36 78.8789 36.15C79.9422 34.9033 80.9506 33.62 81.9039 32.3C82.8572 30.98 83.7006 29.77 84.4339 28.67C84.5806 28.45 84.6722 28.34 84.7089 28.34C84.9289 28.3767 85.2039 28.45 85.5339 28.56C85.9006 28.67 86.2122 28.8167 86.4689 29C86.7256 29.1833 86.8539 29.4217 86.8539 29.715C86.8539 30.045 86.6889 30.5033 86.3589 31.09C86.0289 31.64 85.6622 32.2817 85.2589 33.015C84.8556 33.7483 84.4889 34.5 84.1589 35.27C83.8289 36.0033 83.6639 36.7 83.6639 37.36C83.6639 37.91 83.8106 38.46 84.1039 39.01C84.3972 39.5233 84.8739 39.78 85.5339 39.78C86.5239 39.78 87.8256 39.065 89.4389 37.635C91.0522 36.1683 92.6839 33.9867 94.3339 31.09L94.8839 31.64C94.1139 33.62 93.1239 35.3617 91.9139 36.865C90.7039 38.3683 89.4022 39.5417 88.0089 40.385C86.6522 41.2283 85.3139 41.65 83.9939 41.65C82.6372 41.65 81.6289 41.2467 80.9689 40.44C80.3456 39.6333 80.0339 38.7533 80.0339 37.8C80.0339 37.58 80.0522 37.3417 80.0889 37.085C80.1256 36.7917 80.1622 36.4983 80.1989 36.205C78.6222 38.3317 77.1739 39.9267 75.8539 40.99C74.5706 42.0533 73.2506 42.585 71.8939 42.585ZM95.574 55.4C94.6573 55.4 93.8507 55.1433 93.154 54.63C92.4573 54.1533 92.109 53.4383 92.109 52.485C92.109 51.3117 92.4023 50.2667 92.989 49.35C93.5757 48.4333 94.364 47.59 95.354 46.82C96.344 46.05 97.4807 45.3167 98.764 44.62C100.047 43.9233 101.386 43.2267 102.779 42.53C103.292 41.1733 103.806 39.67 104.319 38.02C104.869 36.3333 105.382 34.4817 105.859 32.465C104.686 34.3717 103.421 36.0217 102.064 37.415C100.744 38.7717 99.3323 39.45 97.829 39.45C97.1323 39.45 96.4357 39.3033 95.739 39.01C95.079 38.68 94.529 38.185 94.089 37.525C93.649 36.865 93.429 36.0217 93.429 34.995C93.429 33.9683 93.594 32.7767 93.924 31.42C94.2907 30.0633 94.7307 28.7433 95.244 27.46C95.7573 26.1767 96.289 25.1133 96.839 24.27C97.389 23.4267 97.8657 23.005 98.269 23.005C98.4157 23.005 98.6723 23.06 99.039 23.17C99.4423 23.28 99.809 23.445 100.139 23.665C100.506 23.8483 100.689 24.05 100.689 24.27C100.359 24.7467 99.9923 25.425 99.589 26.305C99.1857 27.185 98.7823 28.175 98.379 29.275C98.0123 30.3383 97.7007 31.3833 97.444 32.41C97.1873 33.4367 97.059 34.3167 97.059 35.05C97.059 35.71 97.2057 36.2417 97.499 36.645C97.7923 37.0483 98.3057 37.25 99.039 37.25C99.7357 37.25 100.506 36.92 101.349 36.26C102.229 35.5633 103.091 34.6833 103.934 33.62C104.814 32.5567 105.621 31.42 106.354 30.21C106.464 29.8067 106.556 29.4033 106.629 29C106.739 28.56 106.831 28.12 106.904 27.68C107.014 27.1667 107.271 26.58 107.674 25.92C108.114 25.2233 108.792 24.875 109.709 24.875C109.892 24.875 110.076 24.8933 110.259 24.93C110.442 24.93 110.644 24.9667 110.864 25.04C110.864 25.6267 110.681 26.7267 110.314 28.34C109.984 29.9167 109.489 31.7683 108.829 33.895C108.206 36.0217 107.454 38.2033 106.574 40.44C108.297 39.78 109.984 38.6983 111.634 37.195C113.284 35.655 114.622 33.62 115.649 31.09L116.364 31.64C115.814 33.4 114.971 34.94 113.834 36.26C112.734 37.5433 111.487 38.6617 110.094 39.615C108.701 40.5317 107.326 41.3017 105.969 41.925C105.016 44.2717 103.971 46.4717 102.834 48.525C101.734 50.5783 100.561 52.2283 99.314 53.475C98.104 54.7583 96.8573 55.4 95.574 55.4ZM95.299 53.64C95.849 53.64 96.7657 52.9067 98.049 51.44C99.369 50.01 100.762 47.48 102.229 43.85C100.726 44.6567 99.3323 45.445 98.049 46.215C96.7657 47.0217 95.739 47.8833 94.969 48.8C94.199 49.7167 93.814 50.78 93.814 51.99C93.814 52.2833 93.924 52.6317 94.144 53.035C94.364 53.4383 94.749 53.64 95.299 53.64ZM120.361 42.805C118.638 42.805 117.263 42.42 116.236 41.65C115.246 40.9167 114.549 40 114.146 38.9C113.706 37.8 113.486 36.7 113.486 35.6C113.486 34.5 113.633 33.6567 113.926 33.07C114.219 32.4833 114.568 32.0433 114.971 31.75C115.411 31.4567 115.814 31.2367 116.181 31.09C116.584 30.9433 116.859 30.7967 117.006 30.65C118.106 29.44 119.114 28.175 120.031 26.855C120.948 25.535 121.754 24.1417 122.451 22.675V22.015C122.451 20.6583 122.671 19.705 123.111 19.155C123.588 18.5683 124.083 18.275 124.596 18.275C124.889 18.275 125.109 18.3483 125.256 18.495C125.403 18.6417 125.476 18.8067 125.476 18.99C125.476 19.1733 125.421 19.4667 125.311 19.87C125.201 20.2733 125.146 20.7867 125.146 21.41C125.146 22.62 125.384 23.94 125.861 25.37C126.338 26.7633 126.814 28.2483 127.291 29.825C127.768 31.365 128.006 32.9783 128.006 34.665C128.006 35.1417 127.969 35.6183 127.896 36.095C127.859 36.535 127.786 36.9567 127.676 37.36C128.959 37.14 130.169 36.5717 131.306 35.655C132.443 34.7017 133.543 33.1983 134.606 31.145L135.101 31.695C134.404 33.7117 133.359 35.2517 131.966 36.315C130.573 37.3417 129.051 37.9833 127.401 38.24C126.814 39.8167 125.879 40.9717 124.596 41.705C123.349 42.4383 121.938 42.805 120.361 42.805ZM120.471 40.88C120.911 40.88 121.498 40.7333 122.231 40.44C122.964 40.1467 123.533 39.395 123.936 38.185C122.396 37.8917 121.021 37.2867 119.811 36.37C118.638 35.4533 117.758 34.5367 117.171 33.62C116.364 33.6567 115.961 34.2983 115.961 35.545C115.961 36.865 116.346 38.0933 117.116 39.23C117.923 40.33 119.041 40.88 120.471 40.88ZM124.211 37.305C124.284 36.9383 124.339 36.5533 124.376 36.15C124.413 35.7467 124.431 35.27 124.431 34.72C124.431 32.9967 124.211 31.2917 123.771 29.605C123.368 27.8817 123.019 26.2683 122.726 24.765C121.883 26.1583 120.984 27.4967 120.031 28.78C119.114 30.0267 118.234 31.0717 117.391 31.915C117.941 33.0883 118.784 34.1883 119.921 35.215C121.094 36.2417 122.524 36.9383 124.211 37.305ZM135.746 40.55C135.269 40.55 134.848 40.4217 134.481 40.165C134.151 39.945 133.986 39.5783 133.986 39.065C133.986 38.6617 134.151 38.295 134.481 37.965C134.811 37.5983 135.214 37.3233 135.691 37.14C136.204 36.92 136.699 36.81 137.176 36.81C137.616 36.81 137.964 36.9017 138.221 37.085C138.478 37.2683 138.606 37.6167 138.606 38.13C138.606 38.4967 138.459 38.8633 138.166 39.23C137.909 39.5967 137.561 39.9083 137.121 40.165C136.681 40.4217 136.223 40.55 135.746 40.55Z" fill="#E2E4E4"/>
</svg>
