<svg width="23" height="21" viewBox="0 0 23 21" fill="none" xmlns="http://www.w3.org/2000/svg">
<g id="&#229;&#156;&#134;&#232;&#167;&#146;-&#232;&#180;&#173;&#231;&#137;&#169;&#232;&#189;&#166;1-&#233;&#157;&#162;">
<g id="&#229;&#156;&#134;&#232;&#167;&#146;-&#231;&#188;&#150;&#232;&#190;&#145;&#232;&#181;&#132;&#230;&#150;&#153;-&#233;&#157;&#162;">
<g id="Group 2">
<path id="Combined Shape" fill-rule="evenodd" clip-rule="evenodd" d="M0.666016 1.32874C0.666016 1.69694 0.964493 1.99541 1.33268 1.99541H3.18988C3.53133 1.99541 3.81758 2.25339 3.85296 2.59299L5.13331 14.8806C5.23947 15.8994 6.09822 16.6733 7.12254 16.6733H19.9589C20.3271 16.6733 20.6256 16.3748 20.6256 16.0066C20.6256 15.6385 20.3271 15.34 19.9589 15.34H7.12254C6.7811 15.34 6.49485 15.082 6.45946 14.7424L6.37547 13.9364L19.2498 12.7299C19.6574 12.6917 20.0006 12.4089 20.116 12.0161L22.2896 4.61513C22.4776 3.97473 21.9975 3.33334 21.3301 3.33334H5.27066L5.17912 2.4548C5.07296 1.436 4.21421 0.662079 3.18988 0.662079H1.33268C0.964493 0.662079 0.666016 0.960556 0.666016 1.32874Z" fill="white"/>
<path id="Oval" fill-rule="evenodd" clip-rule="evenodd" d="M7.99935 20.6667C8.73573 20.6667 9.33268 20.0697 9.33268 19.3333C9.33268 18.597 8.73573 18 7.99935 18C7.26297 18 6.66602 18.597 6.66602 19.3333C6.66602 20.0697 7.26297 20.6667 7.99935 20.6667Z" fill="white"/>
<path id="Oval Copy" fill-rule="evenodd" clip-rule="evenodd" d="M17.3333 20.6667C18.0697 20.6667 18.6667 20.0697 18.6667 19.3333C18.6667 18.597 18.0697 18 17.3333 18C16.597 18 16 18.597 16 19.3333C16 20.0697 16.597 20.6667 17.3333 20.6667Z" fill="white"/>
</g>
</g>
</g>
</svg>
