<svg width="24" height="24" viewBox="0 0 24 24" fill="none" xmlns="http://www.w3.org/2000/svg">
<path fill-rule="evenodd" clip-rule="evenodd" d="M0.660156 3.32877C0.660156 3.69697 0.95863 3.99545 1.32682 3.99545H3.184C3.52544 3.99545 3.81169 4.25342 3.84707 4.59302L5.12741 16.8806C5.23356 17.8994 6.0923 18.6733 7.11662 18.6733H19.9529C20.321 18.6733 20.6195 18.3749 20.6195 18.0067C20.6195 17.6385 20.321 17.34 19.9529 17.34H7.11662C6.77518 17.34 6.48893 17.082 6.45355 16.7424L6.36956 15.9364L19.2437 14.73C19.6514 14.6918 19.9945 14.4089 20.1099 14.0161L22.2835 6.61516C22.4716 5.97476 21.9915 5.33337 21.324 5.33337H5.26475L5.17321 4.45483C5.06706 3.43603 4.20831 2.66211 3.184 2.66211H1.32682C0.95863 2.66211 0.660156 2.96059 0.660156 3.32877Z" fill="white"/>
<path fill-rule="evenodd" clip-rule="evenodd" d="M7.99348 22.6667C8.72985 22.6667 9.3268 22.0697 9.3268 21.3333C9.3268 20.597 8.72985 20 7.99348 20C7.2571 20 6.66016 20.597 6.66016 21.3333C6.66016 22.0697 7.2571 22.6667 7.99348 22.6667Z" fill="white"/>
<path fill-rule="evenodd" clip-rule="evenodd" d="M17.3255 22.6667C18.0619 22.6667 18.6588 22.0697 18.6588 21.3333C18.6588 20.597 18.0619 20 17.3255 20C16.5891 20 15.9922 20.597 15.9922 21.3333C15.9922 22.0697 16.5891 22.6667 17.3255 22.6667Z" fill="white"/>
</svg>
