<svg width="18" height="16" viewBox="0 0 18 16" fill="none" xmlns="http://www.w3.org/2000/svg">
<path d="M16.7963 0.802734H1.45229C1.08328 0.802734 0.785156 1.07341 0.785156 1.40844V15.3397C0.785156 15.6747 1.08328 15.9454 1.45229 15.9454H16.7963C17.1653 15.9454 17.4634 15.6747 17.4634 15.3397V1.40844C17.4634 1.07341 17.1653 0.802734 16.7963 0.802734ZM13.6128 6.28626C13.6191 6.37523 13.6191 6.46798 13.6191 6.55883C13.6191 9.33751 11.2883 12.5383 7.02907 12.5383C5.71566 12.5383 4.49815 12.1919 3.47244 11.5957C3.66007 11.6146 3.83936 11.6222 4.03116 11.6222C5.11524 11.6222 6.11177 11.289 6.90607 10.725C5.8887 10.706 5.03394 10.1003 4.74207 9.26747C5.09857 9.31479 5.41962 9.31479 5.78654 9.22962C5.26269 9.13299 4.79184 8.87468 4.45399 8.49857C4.11613 8.12247 3.9321 7.65177 3.93317 7.16643V7.13993C4.23964 7.29704 4.6003 7.39357 4.97765 7.40682C4.66043 7.21488 4.40029 6.95483 4.22027 6.64974C4.04026 6.34466 3.94594 6.00395 3.94568 5.65785C3.94568 5.26603 4.05826 4.90828 4.26048 4.59786C4.84193 5.24774 5.5675 5.77925 6.39001 6.15787C7.21253 6.53648 8.11359 6.75371 9.03463 6.79544C8.70732 5.36635 9.88313 4.20983 11.2966 4.20983C11.9637 4.20983 12.5642 4.46347 12.9874 4.87232C13.5107 4.78336 14.011 4.60543 14.4571 4.36693C14.2841 4.85339 13.9214 5.26414 13.4398 5.52345C13.9068 5.47803 14.3571 5.36067 14.774 5.19599C14.4592 5.6162 14.0652 5.98909 13.6128 6.28626Z" fill="#AAAAAA"/>
</svg>
