<svg width="18" height="12" viewBox="0 0 18 12" fill="none" xmlns="http://www.w3.org/2000/svg">
<path d="M17.17 1.84732C17.0751 1.50379 16.8889 1.1905 16.6302 0.938825C16.3715 0.687147 16.0492 0.505902 15.6958 0.413228C14.3946 0.0732423 9.17896 0.0732422 9.17896 0.0732422C9.17896 0.0732422 3.96329 0.0732421 2.66216 0.41142C2.30853 0.503793 1.98615 0.684938 1.72738 0.936662C1.4686 1.18839 1.28256 1.50183 1.18793 1.84551C0.839844 3.11142 0.839844 5.75173 0.839844 5.75173C0.839844 5.75173 0.839844 8.39205 1.18793 9.65615C1.37965 10.3542 1.94552 10.904 2.66216 11.0902C3.96329 11.4302 9.17896 11.4302 9.17896 11.4302C9.17896 11.4302 14.3946 11.4302 15.6958 11.0902C16.4143 10.904 16.9783 10.3542 17.17 9.65615C17.5181 8.39205 17.5181 5.75173 17.5181 5.75173C17.5181 5.75173 17.5181 3.11142 17.17 1.84732ZM7.52231 8.17504V3.32843L11.8408 5.73365L7.52231 8.17504Z" fill="#AAAAAA"/>
</svg>
